<?xml version="1.0" standalone="no"?>
<!DOCTYPE svg PUBLIC "-//W3C//DTD SVG 20010904//EN"
 "http://www.w3.org/TR/2001/REC-SVG-20010904/DTD/svg10.dtd">
<svg version="1.0" xmlns="http://www.w3.org/2000/svg"
 width="2048.000000pt" height="2045.000000pt" viewBox="0 0 2048.000000 2045.000000"
 preserveAspectRatio="xMidYMid meet">

<g transform="translate(0.000000,2045.000000) scale(0.100000,-0.100000)"
fill="#000000" stroke="none">
<path d="M11480 18794 c-7 -16 -20 -51 -29 -79 -10 -27 -121 -331 -246 -675
-125 -344 -254 -697 -285 -785 -32 -88 -65 -178 -73 -200 -9 -22 -37 -98 -62
-170 -26 -71 -62 -170 -80 -220 -18 -49 -63 -173 -99 -275 -37 -102 -74 -203
-83 -225 -18 -49 -321 -880 -373 -1025 -21 -58 -54 -148 -73 -200 -56 -151
-154 -420 -175 -480 -29 -83 -498 -1369 -515 -1415 -9 -22 -38 -103 -66 -180
-27 -77 -64 -178 -81 -225 -18 -47 -45 -121 -60 -165 -16 -44 -42 -116 -58
-160 -42 -112 -469 -1286 -498 -1365 -12 -36 -37 -103 -54 -150 -18 -47 -45
-121 -60 -165 -16 -44 -42 -116 -58 -160 -16 -44 -132 -361 -257 -705 -125
-344 -233 -641 -240 -660 -8 -19 -41 -111 -75 -205 -66 -183 -89 -245 -114
-314 -9 -24 -145 -397 -303 -830 -157 -432 -299 -822 -315 -866 -16 -44 -42
-116 -58 -160 -15 -44 -42 -118 -60 -165 -17 -47 -63 -173 -101 -280 -38 -107
-76 -211 -84 -230 -8 -19 -86 -233 -174 -475 -87 -242 -166 -458 -174 -480 -9
-22 -37 -98 -63 -170 -25 -71 -61 -170 -79 -220 -18 -49 -141 -387 -273 -751
-133 -363 -247 -678 -256 -700 -8 -21 -35 -95 -60 -164 -24 -69 -56 -156 -70
-195 -29 -79 -30 -83 -15 -68 5 5 25 52 43 104 19 52 48 132 65 179 18 47 41
110 51 140 10 30 37 105 60 165 23 61 48 128 55 150 7 22 34 96 60 165 26 69
52 143 60 165 7 22 27 78 45 125 17 47 44 121 60 165 16 44 42 116 58 160 16
44 41 112 55 150 14 39 41 113 60 165 19 52 41 111 47 130 7 19 23 62 35 95
13 33 30 80 38 105 8 25 30 83 47 130 18 47 43 114 55 150 21 59 45 124 122
335 71 194 86 236 113 310 16 44 43 118 60 165 17 47 36 99 42 115 6 17 33 91
60 165 28 74 58 158 68 185 10 28 29 82 43 120 14 39 41 113 60 165 49 136 57
156 88 240 15 41 39 109 54 150 15 41 39 109 54 150 16 41 34 91 40 110 7 19
26 71 43 115 16 44 42 116 58 160 16 44 43 118 60 165 17 47 39 110 49 140 10
30 23 66 29 80 6 14 29 75 51 135 22 61 65 180 96 265 31 85 68 189 84 230 15
41 33 91 40 110 7 19 29 78 48 130 19 52 45 124 58 160 13 36 40 110 60 165
20 55 47 129 60 165 13 36 38 103 55 150 18 47 38 103 45 125 8 22 34 96 60
165 26 69 53 143 60 165 8 22 28 78 45 125 17 47 44 121 60 165 16 44 43 118
60 165 58 155 101 275 114 315 7 22 22 63 33 90 11 28 26 66 32 85 7 19 28 78
48 130 19 52 45 124 58 160 12 36 37 103 54 150 18 47 46 123 62 170 51 142
76 211 109 300 18 47 42 114 55 150 13 36 37 103 55 150 17 47 42 114 54 150
13 36 35 97 49 135 38 103 95 261 122 335 13 36 40 110 60 165 55 152 85 235
105 290 10 28 41 113 69 190 62 169 98 267 146 400 20 55 45 124 56 153 10 28
28 76 38 105 11 28 36 97 56 152 19 55 48 134 64 175 16 41 31 84 34 95 3 11
24 70 47 130 23 61 50 135 60 165 10 30 35 98 55 150 20 52 45 120 55 150 10
30 35 100 55 155 70 188 97 260 125 340 16 44 43 118 60 165 31 85 40 109 98
270 17 47 44 121 60 165 16 44 46 125 66 180 20 55 45 125 56 155 10 30 33 93
50 140 17 47 42 114 55 150 13 36 38 103 55 150 17 47 53 146 80 220 27 74 67
185 90 245 23 61 50 135 60 165 19 55 60 169 120 330 18 47 38 103 45 125 8
22 34 96 60 165 26 69 52 143 59 165 7 22 18 51 24 65 32 72 94 252 89 257 -4
3 -11 -7 -17 -23z"/>
<path d="M5080 12429 c-679 -56 -1277 -417 -1637 -987 -30 -48 -65 -107 -78
-132 l-23 -46 231 -179 c127 -99 281 -219 343 -266 l111 -86 18 51 c120 340
438 647 791 764 162 54 233 65 419 66 154 0 180 -3 278 -28 60 -15 147 -44
194 -63 90 -38 235 -128 300 -187 l39 -35 298 291 297 291 -23 25 c-13 13 -59
52 -103 87 -323 252 -703 400 -1118 434 -141 12 -195 12 -337 0z"/>
<path d="M10155 12360 c11 -5 342 -9 735 -9 602 0 729 -2 802 -15 241 -43 459
-158 639 -336 102 -101 158 -175 213 -285 171 -334 165 -724 -16 -1045 -76
-135 -213 -286 -348 -382 -80 -57 -220 -127 -321 -162 -149 -50 -223 -56 -736
-56 l-473 0 0 -775 0 -775 -255 0 -255 0 0 1915 c0 1270 -3 1915 -10 1915 -7
0 -10 -644 -10 -1911 0 -1697 2 -1913 15 -1923 11 -8 91 -9 268 -6 l252 5 3
767 2 767 498 4 c491 4 498 5 597 29 451 114 787 438 896 866 30 119 31 128
26 290 -4 150 -7 177 -35 267 -72 238 -192 419 -387 582 -180 150 -354 227
-625 273 -70 13 -1503 12 -1475 0z"/>
<path d="M10650 11210 l0 -660 454 0 c492 0 534 4 650 55 244 108 396 341 396
604 0 135 -34 250 -105 357 -55 83 -182 195 -268 237 -131 64 -163 67 -673 67
l-454 0 0 -660z m921 641 c326 -35 586 -345 566 -676 -16 -253 -160 -457 -399
-563 l-83 -37 -498 -5 -497 -5 0 648 0 647 413 0 c226 0 451 -4 498 -9z"/>
<path d="M13640 11244 c-98 -13 -289 -58 -357 -85 -210 -82 -348 -182 -490
-352 l-76 -91 26 -20 c14 -12 69 -48 122 -81 150 -93 175 -109 245 -154 l65
-41 29 37 c107 138 235 228 398 280 73 23 100 26 223 27 125 0 148 -3 220 -27
115 -38 184 -78 269 -158 123 -115 175 -236 176 -406 0 -40 -2 -73 -4 -73 -2
0 -43 16 -90 35 -48 19 -142 49 -209 67 -114 30 -135 32 -334 36 -223 4 -312
-3 -460 -38 -341 -81 -590 -275 -703 -547 -21 -50 -36 -112 -47 -193 -16 -110
-16 -126 0 -240 42 -293 178 -481 492 -675 54 -33 175 -76 282 -100 108 -25
131 -27 273 -22 109 4 179 12 234 26 193 50 370 168 518 344 l48 58 0 -164 c0
-137 3 -166 15 -171 21 -8 472 -9 485 -1 14 8 14 1782 0 1856 -24 132 -83 284
-152 391 -130 202 -406 393 -633 437 -28 6 -81 17 -120 26 -69 16 -370 28
-445 19z m497 -42 c168 -37 284 -84 410 -168 188 -125 328 -310 392 -518 50
-161 51 -191 51 -1123 l0 -873 -240 0 -240 0 0 180 c0 99 -4 180 -9 180 -5 0
-28 -25 -51 -56 -128 -170 -329 -310 -513 -358 -159 -42 -356 -44 -530 -6
-273 60 -543 255 -659 476 -73 140 -90 206 -95 369 -8 248 49 415 200 580 145
160 353 266 615 317 158 30 498 33 637 5 108 -22 247 -65 340 -107 l68 -31 -6
110 c-9 185 -61 297 -190 417 -87 80 -215 146 -332 170 -96 20 -279 15 -370
-10 -151 -42 -311 -148 -390 -259 -22 -31 -43 -56 -48 -57 -9 0 -406 247 -426
265 -11 11 -6 23 31 72 176 228 431 376 743 433 149 27 471 22 612 -8z"/>
<path d="M13654 9805 c-120 -27 -280 -105 -346 -169 -136 -132 -175 -319 -101
-477 51 -109 156 -194 305 -246 63 -22 90 -26 193 -26 223 0 391 67 556 221
142 133 226 296 243 474 l6 67 -69 41 c-88 52 -212 95 -333 115 -115 18 -369
18 -454 0z m403 -6 c153 -21 304 -71 399 -132 40 -26 42 -43 18 -167 -27 -143
-92 -258 -216 -376 -153 -148 -299 -211 -513 -221 -141 -6 -210 7 -323 64 -97
48 -163 112 -201 193 -28 59 -31 74 -31 165 0 90 3 106 30 164 41 87 64 116
123 160 99 72 222 125 350 151 62 12 274 12 364 -1z"/>
<path d="M15054 11147 c-4 -11 20 -72 71 -182 8 -16 43 -95 78 -175 75 -170
194 -439 279 -630 33 -74 85 -191 115 -260 65 -148 148 -333 231 -520 136
-306 186 -419 217 -490 18 -41 45 -102 59 -134 24 -52 26 -63 15 -90 -17 -42
-62 -142 -114 -251 -24 -49 -93 -200 -155 -335 -62 -135 -131 -285 -155 -335
-152 -318 -177 -375 -167 -375 4 0 22 30 39 68 29 62 77 165 235 507 33 72 75
162 93 200 30 64 101 217 211 453 l43 93 -210 472 c-116 260 -257 578 -314
707 -57 129 -205 465 -330 745 -125 281 -229 516 -232 523 -4 9 54 12 270 12
l275 0 60 -147 c34 -82 94 -224 133 -318 39 -93 81 -195 94 -225 18 -44 297
-711 461 -1104 39 -92 41 -95 50 -70 4 10 17 44 29 74 32 76 147 359 210 515
29 72 117 288 195 480 78 193 180 445 227 560 47 116 87 216 90 223 4 9 69 12
279 12 151 0 274 -2 274 -5 0 -2 -21 -51 -46 -107 -25 -57 -75 -170 -111 -253
-52 -120 -186 -425 -268 -610 -7 -16 -68 -156 -135 -310 -112 -257 -217 -497
-410 -935 -94 -214 -231 -526 -335 -765 -45 -104 -126 -289 -179 -410 -54
-121 -113 -257 -133 -302 l-36 -83 -253 0 c-158 0 -255 -4 -259 -10 -4 -7 83
-10 253 -10 l260 0 30 63 c16 34 44 94 60 132 17 39 58 133 92 210 34 77 73
167 87 200 14 33 36 83 49 110 12 28 48 109 79 180 53 121 79 182 157 360 17
39 38 88 48 110 60 134 104 234 115 260 31 73 243 559 310 710 106 241 168
382 201 460 19 44 45 103 58 130 12 28 35 77 49 110 37 86 152 348 261 597 31
70 57 137 59 150 l2 23 -280 0 -280 0 -17 -35 c-22 -48 -98 -232 -158 -385
-18 -44 -39 -96 -47 -115 -9 -19 -24 -55 -33 -80 -10 -25 -34 -85 -55 -135
-21 -49 -50 -121 -65 -160 -15 -38 -53 -132 -84 -207 -31 -76 -81 -200 -112
-275 -31 -76 -69 -169 -84 -208 -87 -221 -104 -256 -112 -241 -5 9 -25 55 -45
104 -19 48 -47 114 -60 147 -14 33 -33 80 -43 105 -10 25 -39 95 -65 155 -26
61 -53 126 -60 145 -7 19 -30 73 -50 120 -41 94 -55 127 -159 378 -13 31 -54
129 -91 217 -37 88 -75 180 -85 205 -28 68 -85 201 -101 235 l-14 30 -278 3
c-222 2 -279 0 -283 -11z"/>
<path d="M5250 10300 l0 -390 584 0 c424 0 587 3 592 11 16 27 22 -20 9 -67
-13 -42 -14 -43 -9 -11 3 21 8 45 11 53 3 8 1 14 -5 14 -5 0 -12 -19 -16 -42
-10 -64 -53 -185 -93 -263 -135 -263 -351 -444 -652 -546 -47 -16 -68 -26 -47
-23 76 13 240 86 339 152 24 16 41 22 45 16 4 -6 149 -120 323 -255 l316 -245
-79 -64 c-43 -36 -111 -86 -151 -113 -82 -54 -272 -152 -365 -188 -34 -13 -58
-25 -53 -27 15 -5 231 92 325 146 145 84 243 160 372 287 292 289 461 621 550
1080 25 130 27 160 28 415 1 253 -6 352 -30 433 -5 16 -61 17 -1000 17 l-994
0 0 -390z m2009 146 c2 -66 -6 -35 -12 49 -4 60 -3 69 3 35 5 -25 9 -63 9 -84z
m2 -341 l-10 -90 5 94 c2 52 5 137 6 190 l2 96 3 -100 c2 -55 -1 -140 -6 -190z
m-14 -127 c-3 -7 -5 -2 -5 12 0 14 2 19 5 13 2 -7 2 -19 0 -25z m0 -40 c-3 -8
-6 -5 -6 6 -1 11 2 17 5 13 3 -3 4 -12 1 -19z m-1109 -5 c-158 -2 -419 -2
-580 0 -161 1 -32 2 287 2 319 0 451 -1 293 -2z m1099 -65 c-3 -7 -5 -2 -5 12
0 14 2 19 5 13 2 -7 2 -19 0 -25z m-21 -126 c-9 -38 -20 -80 -26 -93 l-11 -24
6 25 c26 120 39 170 43 166 2 -3 -3 -36 -12 -74z m-832 -61 c-9 -23 -18 -40
-20 -38 -2 2 4 22 13 45 9 23 18 40 20 38 2 -2 -4 -22 -13 -45z m-48 -109 c-9
-17 -21 -34 -27 -38 -6 -3 0 12 12 34 27 47 38 49 15 4z m824 -39 c-11 -17
-11 -17 -6 0 3 10 6 24 7 30 0 9 2 9 5 0 3 -7 0 -20 -6 -30z m-19 -50 c-12
-20 -14 -14 -5 12 4 9 9 14 11 11 3 -2 0 -13 -6 -23z m-860 -1 c-5 -10 -18
-25 -27 -33 -16 -12 -17 -12 -9 1 10 18 37 50 42 50 2 0 -1 -8 -6 -18z m-53
-71 c-42 -60 -203 -209 -214 -199 -3 3 17 21 44 40 26 20 77 67 112 107 64 71
83 88 58 52z m867 -52 c-14 -30 -25 -48 -25 -42 0 15 42 104 47 99 2 -2 -8
-27 -22 -57z m-62 -134 c-15 -30 -29 -53 -31 -51 -4 5 46 106 53 106 3 0 -7
-25 -22 -55z m-55 -99 c-13 -19 -24 -33 -26 -31 -5 4 37 65 44 65 2 0 -6 -15
-18 -34z m-45 -77 c-10 -17 -24 -36 -32 -42 -17 -14 -11 -1 21 46 26 37 33 34
11 -4z m-43 -64 c0 -10 -150 -182 -196 -225 -26 -25 -11 -5 35 44 45 49 90
100 99 115 25 42 62 81 62 66z"/>
<path d="M4005 9858 c-16 -18 -16 -20 -2 -9 21 17 17 21 51 -60 112 -270 323
-502 591 -649 79 -43 212 -95 265 -104 19 -3 4 5 -35 17 -216 72 -386 177
-545 338 -118 118 -201 249 -291 457 l-15 34 -19 -24z"/>
<path d="M3959 9823 c-13 -16 -12 -17 4 -4 9 7 17 15 17 17 0 8 -8 3 -21 -13z"/>
<path d="M3911 9790 c-13 -11 -19 -20 -14 -20 6 0 18 9 28 20 23 25 17 25 -14
0z"/>
<path d="M3829 9723 c-13 -16 -12 -17 4 -4 16 13 21 21 13 21 -2 0 -10 -8 -17
-17z"/>
<path d="M3760 9669 l-35 -30 38 26 c33 24 43 35 34 35 -1 0 -18 -14 -37 -31z"/>
<path d="M3694 9618 l-19 -23 23 19 c12 11 22 21 22 23 0 8 -8 2 -26 -19z"/>
<path d="M3649 9583 c-13 -16 -12 -17 4 -4 9 7 17 15 17 17 0 8 -8 3 -21 -13z"/>
<path d="M3609 9553 c-13 -16 -12 -17 4 -4 16 13 21 21 13 21 -2 0 -10 -8 -17
-17z"/>
<path d="M3559 9513 c-13 -16 -12 -17 4 -4 16 13 21 21 13 21 -2 0 -10 -8 -17
-17z"/>
<path d="M3495 9464 l-40 -36 43 32 c36 27 49 40 40 40 -2 0 -21 -16 -43 -36z"/>
<path d="M3410 9399 c-35 -31 -35 -31 -3 -9 18 11 35 25 38 30 10 16 2 11 -35
-21z"/>
<path d="M3350 9357 c0 -12 50 -107 93 -177 202 -323 509 -601 854 -774 116
-58 98 -41 -26 24 -343 182 -624 441 -820 757 -28 46 -51 85 -51 87 0 2 -11
24 -25 47 -14 24 -25 40 -25 36z"/>
<path d="M4958 9023 c7 -3 16 -2 19 1 4 3 -2 6 -13 5 -11 0 -14 -3 -6 -6z"/>
<path d="M5515 9017 c-45 -12 -379 -16 -470 -5 -47 5 -54 4 -30 -4 81 -27 471
-19 549 12 29 12 0 10 -49 -3z"/>
<path d="M4414 8354 c38 -21 296 -106 308 -102 6 2 -32 16 -83 32 -52 15 -127
41 -167 57 -81 32 -103 37 -58 13z"/>
<path d="M5910 8290 c-35 -13 -43 -18 -24 -15 32 4 108 33 89 34 -5 0 -35 -9
-65 -19z"/>
<path d="M5805 8260 c-13 -5 -14 -9 -5 -9 8 0 24 4 35 9 13 5 14 9 5 9 -8 0
-24 -4 -35 -9z"/>
<path d="M4741 8246 c6 -6 173 -36 195 -35 10 0 -21 9 -71 20 -87 18 -133 23
-124 15z"/>
<path d="M5645 8230 c-49 -10 -81 -18 -70 -19 23 -1 198 29 204 35 8 8 -45 2
-134 -16z"/>
<path d="M4973 8203 c9 -2 25 -2 35 0 9 3 1 5 -18 5 -19 0 -27 -2 -17 -5z"/>
<path d="M5498 8203 c12 -2 30 -2 40 0 9 3 -1 5 -23 4 -22 0 -30 -2 -17 -4z"/>
<path d="M5073 8193 c20 -2 54 -2 75 0 20 2 3 4 -38 4 -41 0 -58 -2 -37 -4z"/>
<path d="M5348 8193 c23 -2 59 -2 80 0 20 2 1 4 -43 4 -44 0 -61 -2 -37 -4z"/>
</g>
</svg>
